<?xml version="1.0" encoding="UTF-8" standalone="no"?>
<!-- Created with Inkscape (http://www.inkscape.org/) -->

<svg width="512" height="512" xmlns="http://www.w3.org/2000/svg">
  <style>
    path {
      fill: #6388c5;
    }
    @media (prefers-color-scheme: dark) {
      path {
        fill: white;
      }
    }
  </style>
  <path
       d="m 288.5,452.10215 c -7.97898,-2.04147 -15.64864,-9.24265 -17.62568,-16.54906 -1.39508,-5.15571 -0.59954,-14.22917 1.63438,-18.64094 C 273.45897,415.03547 292.97076,394.6 315.86823,371.5 L 357.5,329.5 205,329 C 61.399562,328.52918 52.237607,328.39539 48.003726,326.70747 38.464986,322.90465 33.05892,314.78944 33.021962,304.21788 32.986341,294.02869 37.453547,286.55282 46.5,281.66237 l 4,-2.16237 212.75,-0.26136 c 117.0125,-0.14375 212.75,0.0876 212.75,0.51403 0,0.42647 -37.56607,38.33153 -83.48016,84.23348 -56.54703,56.53208 -84.86595,84.16237 -87.77547,85.64102 -4.95914,2.52031 -11.92131,3.58106 -16.24437,2.47498 z M 36,231.2419 c 0,-0.41696 37.6875,-38.42187 83.75,-84.45537 64.79645,-64.755643 84.7684,-84.15501 88.25,-85.719931 5.3141,-2.388598 14.50727,-2.717139 19.35485,-0.691695 5.2911,2.210766 10.22427,7.219239 12.63863,12.83157 2.78925,6.483799 2.40198,15.109662 -0.97979,21.822938 -1.52963,3.036541 -15.36552,17.634418 -43.13286,45.508348 C 173.39637,163.10852 155,181.89041 155,182.27528 c 0,0.38487 69.1875,0.81788 153.75,0.96224 L 462.5,183.5 l 4,2.15842 c 8.57349,4.62629 12.5,11.41542 12.5,21.61312 0,11.10189 -5.93827,19.67848 -16.10979,23.2672 C 459.30761,231.80275 430.21597,232 247.37427,232 131.11842,232 36,231.65885 36,231.2419 Z"
       id="logoAtALT" />
</svg>